# xmcd
#
# Track frame offsets:
#	150
#	13730
#	33038
#	56487
#	71285
#	84487
#	97085
#	113644
#	133453
#	151881
#	169527
#
# Disc length: 2450 seconds
# Revision: 0
# Processed by: cddbd v1.5.2PL0 Copyright (c) Steve Scherf et al.
# Submitted via: dBpowerAMP V12.0
#
DISCID=8409900b
DTITLE=Leslie Stevens and the Badgers - Roomful of Smoke
DYEAR=2009
DGENRE=Country
TTITLE0=Los Angeles
TTITLE1=Ballpark Lights
TTITLE2=Old Timers
TTITLE3=Winter Fugue
TTITLE4=My Tears Are Wasted On You
TTITLE5=Don Juan
TTITLE6=Roomful Of Smoke
TTITLE7=Silly
TTITLE8=Americans In Rome
TTITLE9=Salvation
TTITLE10=It's Okay to Trip
EXTD=
EXTT0=
EXTT1=
EXTT2=
EXTT3=
EXTT4=
EXTT5=
EXTT6=
EXTT7=
EXTT8=
EXTT9=
EXTT10=
PLAYORDER=
